<svg xmlns="http://www.w3.org/2000/svg" width="840" height="340" viewBox="0 0 840 340" role="img" aria-label="GitHub: 8090 contributions last year, 24 day streak, 278 stars"><style>.m{font-family:'JetBrains Mono','SFMono-Regular',Consolas,'Liberation Mono',Menlo,monospace;font-weight:700;letter-spacing:1.2px}.v{font-family:'Segoe UI',Inter,-apple-system,BlinkMacSystemFont,Helvetica,Arial,sans-serif;font-weight:800}.c{opacity:0;animation:in .5s ease forwards}@keyframes in{to{opacity:1}}.w0{animation-delay:0.40s}.w1{animation-delay:0.43s}.w2{animation-delay:0.46s}.w3{animation-delay:0.49s}.w4{animation-delay:0.52s}.w5{animation-delay:0.55s}.w6{animation-delay:0.58s}.w7{animation-delay:0.61s}.w8{animation-delay:0.64s}.w9{animation-delay:0.67s}.w10{animation-delay:0.70s}.w11{animation-delay:0.73s}.w12{animation-delay:0.76s}.w13{animation-delay:0.79s}.w14{animation-delay:0.82s}.w15{animation-delay:0.85s}.w16{animation-delay:0.88s}.w17{animation-delay:0.91s}.w18{animation-delay:0.94s}.w19{animation-delay:0.97s}.w20{animation-delay:1.00s}.w21{animation-delay:1.03s}.w22{animation-delay:1.06s}.w23{animation-delay:1.09s}.w24{animation-delay:1.12s}.w25{animation-delay:1.15s}.w26{animation-delay:1.18s}.w27{animation-delay:1.21s}.w28{animation-delay:1.24s}.w29{animation-delay:1.27s}.w30{animation-delay:1.30s}.w31{animation-delay:1.33s}.w32{animation-delay:1.36s}.w33{animation-delay:1.39s}.w34{animation-delay:1.42s}.w35{animation-delay:1.45s}.w36{animation-delay:1.48s}.w37{animation-delay:1.51s}.w38{animation-delay:1.54s}.w39{animation-delay:1.57s}.w40{animation-delay:1.60s}.w41{animation-delay:1.63s}.w42{animation-delay:1.66s}.w43{animation-delay:1.69s}.w44{animation-delay:1.72s}.w45{animation-delay:1.75s}.w46{animation-delay:1.78s}.w47{animation-delay:1.81s}.w48{animation-delay:1.84s}.w49{animation-delay:1.87s}.w50{animation-delay:1.90s}.w51{animation-delay:1.93s}.w52{animation-delay:1.96s}.w53{animation-delay:1.99s}.grow{transform:scaleX(0);transform-origin:left;transform-box:fill-box;animation:grow 1.2s .5s ease forwards}@keyframes grow{to{transform:scaleX(1)}}</style><rect x="0.5" y="0.5" width="839" height="339" rx="14" fill="#0b1012" stroke="rgba(255,255,255,0.08)"/><text class="m" x="24" y="30" fill="#60a5fa" font-size="10">GITHUB  |  @SAGARGUPTA16</text><g opacity="0"><animate attributeName="opacity" to="1" begin="0.1s" dur="0.4s" fill="freeze"/><rect x="16.0" y="44" width="153.6" height="64" rx="10" fill="#0f171c" stroke="rgba(255,255,255,0.07)"/><text class="v" x="30.0" y="76" fill="#f3f4f6" font-size="22">8,090</text><text class="m" x="30.0" y="95" fill="rgba(255,255,255,0.5)" font-size="8">CONTRIBUTIONS, LAST YEAR</text></g><g opacity="0"><animate attributeName="opacity" to="1" begin="0.2s" dur="0.4s" fill="freeze"/><rect x="179.6" y="44" width="153.6" height="64" rx="10" fill="#0f171c" stroke="rgba(255,255,255,0.07)"/><text class="v" x="193.6" y="76" fill="#f3f4f6" font-size="22">5,968</text><text class="m" x="193.6" y="95" fill="rgba(255,255,255,0.5)" font-size="8">COMMITS</text></g><g opacity="0"><animate attributeName="opacity" to="1" begin="0.3s" dur="0.4s" fill="freeze"/><rect x="343.2" y="44" width="153.6" height="64" rx="10" fill="#0f171c" stroke="rgba(255,255,255,0.07)"/><text class="v" x="357.2" y="76" fill="#f3f4f6" font-size="22">1,530</text><text class="m" x="357.2" y="95" fill="rgba(255,255,255,0.5)" font-size="8">PULL REQUESTS</text></g><g opacity="0"><animate attributeName="opacity" to="1" begin="0.4s" dur="0.4s" fill="freeze"/><rect x="506.79999999999995" y="44" width="153.6" height="64" rx="10" fill="#0f171c" stroke="rgba(255,255,255,0.07)"/><text class="v" x="520.8" y="76" fill="#f3f4f6" font-size="22">278</text><text class="m" x="520.8" y="95" fill="rgba(255,255,255,0.5)" font-size="8">STARS EARNED</text></g><g opacity="0"><animate attributeName="opacity" to="1" begin="0.5s" dur="0.4s" fill="freeze"/><rect x="670.4" y="44" width="153.6" height="64" rx="10" fill="#0f171c" stroke="rgba(255,255,255,0.07)"/><text class="v" x="684.4" y="76" fill="#f3f4f6" font-size="22">106</text><text class="m" x="684.4" y="95" fill="rgba(255,255,255,0.5)" font-size="8">FOLLOWERS</text></g><rect class="c w0" x="24.0" y="128.0" width="9" height="9" rx="2" fill="#2563eb55"/><rect class="c w0" x="24.0" y="139.6" width="9" height="9" rx="2" fill="#2563ebdd"/><rect class="c w0" x="24.0" y="151.2" width="9" height="9" rx="2" fill="#2563ebdd"/><rect class="c w0" x="24.0" y="162.8" width="9" height="9" rx="2" fill="#2563ebdd"/><rect class="c w0" x="24.0" y="174.4" width="9" height="9" rx="2" fill="#60a5fa"/><rect class="c w0" x="24.0" y="186.0" width="9" height="9" rx="2" fill="#2563eb99"/><rect class="c w0" x="24.0" y="197.6" width="9" height="9" rx="2" fill="#2563ebdd"/><rect class="c w1" x="35.6" y="128.0" width="9" height="9" rx="2" fill="#60a5fa"/><rect class="c w1" x="35.6" y="139.6" width="9" height="9" rx="2" fill="#2563eb99"/><rect class="c w1" x="35.6" y="151.2" width="9" height="9" rx="2" fill="#2563eb99"/><rect class="c w1" x="35.6" y="162.8" width="9" height="9" rx="2" fill="#2563eb99"/><rect class="c w1" x="35.6" y="174.4" width="9" height="9" rx="2" fill="#60a5fa"/><rect class="c w1" x="35.6" y="186.0" width="9" height="9" rx="2" fill="#2563ebdd"/><rect class="c w1" x="35.6" y="197.6" width="9" height="9" rx="2" fill="#60a5fa"/><rect class="c w2" x="47.2" y="128.0" width="9" height="9" rx="2" fill="#2563eb55"/><rect class="c w2" x="47.2" y="139.6" width="9" height="9" rx="2" fill="#2563eb99"/><rect class="c w2" x="47.2" y="151.2" width="9" height="9" rx="2" fill="#2563ebdd"/><rect class="c w2" x="47.2" y="162.8" width="9" height="9" rx="2" fill="#2563ebdd"/><rect class="c w2" x="47.2" y="174.4" width="9" height="9" rx="2" fill="#2563eb99"/><rect class="c w2" x="47.2" y="186.0" width="9" height="9" rx="2" fill="#2563eb55"/><rect class="c w2" x="47.2" y="197.6" width="9" height="9" rx="2" fill="#2563eb55"/><rect class="c w3" x="58.8" y="128.0" width="9" height="9" rx="2" fill="#2563eb55"/><rect class="c w3" x="58.8" y="139.6" width="9" height="9" rx="2" fill="#2563ebdd"/><rect class="c w3" x="58.8" y="151.2" width="9" height="9" rx="2" fill="#2563eb99"/><rect class="c w3" x="58.8" y="162.8" width="9" height="9" rx="2" fill="#2563eb99"/><rect class="c w3" x="58.8" y="174.4" width="9" height="9" rx="2" fill="#2563eb99"/><rect class="c w3" x="58.8" y="186.0" width="9" height="9" rx="2" fill="#2563eb99"/><rect class="c w3" x="58.8" y="197.6" width="9" height="9" rx="2" fill="#60a5fa"/><rect class="c w4" x="70.4" y="128.0" width="9" height="9" rx="2" fill="#2563eb99"/><rect class="c w4" x="70.4" y="139.6" width="9" height="9" rx="2" fill="#2563ebdd"/><rect class="c w4" x="70.4" y="151.2" width="9" height="9" rx="2" fill="#60a5fa"/><rect class="c w4" x="70.4" y="162.8" width="9" height="9" rx="2" fill="#2563eb99"/><rect class="c w4" x="70.4" y="174.4" width="9" height="9" rx="2" fill="#2563ebdd"/><rect class="c w4" x="70.4" y="186.0" width="9" height="9" rx="2" fill="#2563eb55"/><rect class="c w4" x="70.4" y="197.6" width="9" height="9" rx="2" fill="#2563ebdd"/><rect class="c w5" x="82.0" y="128.0" width="9" height="9" rx="2" fill="#2563eb99"/><rect class="c w5" x="82.0" y="139.6" width="9" height="9" rx="2" fill="#2563eb99"/><rect class="c w5" x="82.0" y="151.2" width="9" height="9" rx="2" fill="#60a5fa"/><rect class="c w5" x="82.0" y="162.8" width="9" height="9" rx="2" fill="#2563ebdd"/><rect class="c w5" x="82.0" y="174.4" width="9" height="9" rx="2" fill="#2563eb55"/><rect class="c w5" x="82.0" y="186.0" width="9" height="9" rx="2" fill="#2563ebdd"/><rect class="c w5" x="82.0" y="197.6" width="9" height="9" rx="2" fill="#60a5fa"/><rect class="c w6" x="93.6" y="128.0" width="9" height="9" rx="2" fill="#2563eb99"/><rect class="c w6" x="93.6" y="139.6" width="9" height="9" rx="2" fill="#2563eb55"/><rect class="c w6" x="93.6" y="151.2" width="9" height="9" rx="2" fill="#60a5fa"/><rect class="c w6" x="93.6" y="162.8" width="9" height="9" rx="2" fill="#60a5fa"/><rect class="c w6" x="93.6" y="174.4" width="9" height="9" rx="2" fill="#60a5fa"/><rect class="c w6" x="93.6" y="186.0" width="9" height="9" rx="2" fill="#2563ebdd"/><rect class="c w6" x="93.6" y="197.6" width="9" height="9" rx="2" fill="#60a5fa"/><rect class="c w7" x="105.2" y="128.0" width="9" height="9" rx="2" fill="#2563eb99"/><rect class="c w7" x="105.2" y="139.6" width="9" height="9" rx="2" fill="#60a5fa"/><rect class="c w7" x="105.2" y="151.2" width="9" height="9" rx="2" fill="#2563eb55"/><rect class="c w7" x="105.2" y="162.8" width="9" height="9" rx="2" fill="#60a5fa"/><rect class="c w7" x="105.2" y="174.4" width="9" height="9" rx="2" fill="#2563ebdd"/><rect class="c w7" x="105.2" y="186.0" width="9" height="9" rx="2" fill="#2563eb99"/><rect class="c w7" x="105.2" y="197.6" width="9" height="9" rx="2" fill="#2563eb99"/><rect class="c w8" x="116.8" y="128.0" width="9" height="9" rx="2" fill="#2563eb99"/><rect class="c w8" x="116.8" y="139.6" width="9" height="9" rx="2" fill="#60a5fa"/><rect class="c w8" x="116.8" y="151.2" width="9" height="9" rx="2" fill="#2563eb99"/><rect class="c w8" x="116.8" y="162.8" width="9" height="9" rx="2" fill="#2563eb99"/><rect class="c w8" x="116.8" y="174.4" width="9" height="9" rx="2" fill="#2563eb55"/><rect class="c w8" x="116.8" y="186.0" width="9" height="9" rx="2" fill="#2563eb55"/><rect class="c w8" x="116.8" y="197.6" width="9" height="9" rx="2" fill="#2563eb99"/><rect class="c w9" x="128.4" y="128.0" width="9" height="9" rx="2" fill="#60a5fa"/><rect class="c w9" x="128.4" y="139.6" width="9" height="9" rx="2" fill="#2563eb99"/><rect class="c w9" x="128.4" y="151.2" width="9" height="9" rx="2" fill="#60a5fa"/><rect class="c w9" x="128.4" y="162.8" width="9" height="9" rx="2" fill="#2563ebdd"/><rect class="c w9" x="128.4" y="174.4" width="9" height="9" rx="2" fill="#2563ebdd"/><rect class="c w9" x="128.4" y="186.0" width="9" height="9" rx="2" fill="#2563eb99"/><rect class="c w9" x="128.4" y="197.6" width="9" height="9" rx="2" fill="#2563ebdd"/><rect class="c w10" x="140.0" y="128.0" width="9" height="9" rx="2" fill="#2563ebdd"/><rect class="c w10" x="140.0" y="139.6" width="9" height="9" rx="2" fill="#2563ebdd"/><rect class="c w10" x="140.0" y="151.2" width="9" height="9" rx="2" fill="#2563ebdd"/><rect class="c w10" x="140.0" y="162.8" width="9" height="9" rx="2" fill="#2563ebdd"/><rect class="c w10" x="140.0" y="174.4" width="9" height="9" rx="2" fill="#2563ebdd"/><rect class="c w10" x="140.0" y="186.0" width="9" height="9" rx="2" fill="#2563eb99"/><rect class="c w10" x="140.0" y="197.6" width="9" height="9" rx="2" fill="#2563eb99"/><rect class="c w11" x="151.6" y="128.0" width="9" height="9" rx="2" fill="#60a5fa"/><rect class="c w11" x="151.6" y="139.6" width="9" height="9" rx="2" fill="#2563eb55"/><rect class="c w11" x="151.6" y="151.2" width="9" height="9" rx="2" fill="#2563ebdd"/><rect class="c w11" x="151.6" y="162.8" width="9" height="9" rx="2" fill="#2563eb55"/><rect class="c w11" x="151.6" y="174.4" width="9" height="9" rx="2" fill="#60a5fa"/><rect class="c w11" x="151.6" y="186.0" width="9" height="9" rx="2" fill="#2563ebdd"/><rect class="c w11" x="151.6" y="197.6" width="9" height="9" rx="2" fill="#2563eb55"/><rect class="c w12" x="163.2" y="128.0" width="9" height="9" rx="2" fill="#60a5fa"/><rect class="c w12" x="163.2" y="139.6" width="9" height="9" rx="2" fill="#2563eb99"/><rect class="c w12" x="163.2" y="151.2" width="9" height="9" rx="2" fill="#2563ebdd"/><rect class="c w12" x="163.2" y="162.8" width="9" height="9" rx="2" fill="#60a5fa"/><rect class="c w12" x="163.2" y="174.4" width="9" height="9" rx="2" fill="#60a5fa"/><rect class="c w12" x="163.2" y="186.0" width="9" height="9" rx="2" fill="#2563eb55"/><rect class="c w12" x="163.2" y="197.6" width="9" height="9" rx="2" fill="#2563eb55"/><rect class="c w13" x="174.8" y="128.0" width="9" height="9" rx="2" fill="#2563ebdd"/><rect class="c w13" x="174.8" y="139.6" width="9" height="9" rx="2" fill="#2563eb99"/><rect class="c w13" x="174.8" y="151.2" width="9" height="9" rx="2" fill="#60a5fa"/><rect class="c w13" x="174.8" y="162.8" width="9" height="9" rx="2" fill="#2563eb55"/><rect class="c w13" x="174.8" y="174.4" width="9" height="9" rx="2" fill="#2563eb55"/><rect class="c w13" x="174.8" y="186.0" width="9" height="9" rx="2" fill="#2563ebdd"/><rect class="c w13" x="174.8" y="197.6" width="9" height="9" rx="2" fill="#2563eb55"/><rect class="c w14" x="186.4" y="128.0" width="9" height="9" rx="2" fill="#2563eb99"/><rect class="c w14" x="186.4" y="139.6" width="9" height="9" rx="2" fill="#2563eb99"/><rect class="c w14" x="186.4" y="151.2" width="9" height="9" rx="2" fill="#2563eb55"/><rect class="c w14" x="186.4" y="162.8" width="9" height="9" rx="2" fill="#2563ebdd"/><rect class="c w14" x="186.4" y="174.4" width="9" height="9" rx="2" fill="#60a5fa"/><rect class="c w14" x="186.4" y="186.0" width="9" height="9" rx="2" fill="#2563eb99"/><rect class="c w14" x="186.4" y="197.6" width="9" height="9" rx="2" fill="#2563eb99"/><rect class="c w15" x="198.0" y="128.0" width="9" height="9" rx="2" fill="#2563eb55"/><rect class="c w15" x="198.0" y="139.6" width="9" height="9" rx="2" fill="#2563eb99"/><rect class="c w15" x="198.0" y="151.2" width="9" height="9" rx="2" fill="#60a5fa"/><rect class="c w15" x="198.0" y="162.8" width="9" height="9" rx="2" fill="#2563eb55"/><rect class="c w15" x="198.0" y="174.4" width="9" height="9" rx="2" fill="#2563eb99"/><rect class="c w15" x="198.0" y="186.0" width="9" height="9" rx="2" fill="#60a5fa"/><rect class="c w15" x="198.0" y="197.6" width="9" height="9" rx="2" fill="#2563eb99"/><rect class="c w16" x="209.6" y="128.0" width="9" height="9" rx="2" fill="#2563eb55"/><rect class="c w16" x="209.6" y="139.6" width="9" height="9" rx="2" fill="#2563eb55"/><rect class="c w16" x="209.6" y="151.2" width="9" height="9" rx="2" fill="#2563eb55"/><rect class="c w16" x="209.6" y="162.8" width="9" height="9" rx="2" fill="#2563eb55"/><rect class="c w16" x="209.6" y="174.4" width="9" height="9" rx="2" fill="#60a5fa"/><rect class="c w16" x="209.6" y="186.0" width="9" height="9" rx="2" fill="#2563eb55"/><rect class="c w16" x="209.6" y="197.6" width="9" height="9" rx="2" fill="#2563eb55"/><rect class="c w17" x="221.2" y="128.0" width="9" height="9" rx="2" fill="#60a5fa"/><rect class="c w17" x="221.2" y="139.6" width="9" height="9" rx="2" fill="#60a5fa"/><rect class="c w17" x="221.2" y="151.2" width="9" height="9" rx="2" fill="#2563ebdd"/><rect class="c w17" x="221.2" y="162.8" width="9" height="9" rx="2" fill="#2563ebdd"/><rect class="c w17" x="221.2" y="174.4" width="9" height="9" rx="2" fill="#2563ebdd"/><rect class="c w17" x="221.2" y="186.0" width="9" height="9" rx="2" fill="#2563eb55"/><rect class="c w17" x="221.2" y="197.6" width="9" height="9" rx="2" fill="#2563eb99"/><rect class="c w18" x="232.8" y="128.0" width="9" height="9" rx="2" fill="#60a5fa"/><rect class="c w18" x="232.8" y="139.6" width="9" height="9" rx="2" fill="#2563ebdd"/><rect class="c w18" x="232.8" y="151.2" width="9" height="9" rx="2" fill="#2563eb55"/><rect class="c w18" x="232.8" y="162.8" width="9" height="9" rx="2" fill="#2563eb55"/><rect class="c w18" x="232.8" y="174.4" width="9" height="9" rx="2" fill="#2563ebdd"/><rect class="c w18" x="232.8" y="186.0" width="9" height="9" rx="2" fill="#60a5fa"/><rect class="c w18" x="232.8" y="197.6" width="9" height="9" rx="2" fill="#60a5fa"/><rect class="c w19" x="244.4" y="128.0" width="9" height="9" rx="2" fill="#2563eb99"/><rect class="c w19" x="244.4" y="139.6" width="9" height="9" rx="2" fill="#2563eb99"/><rect class="c w19" x="244.4" y="151.2" width="9" height="9" rx="2" fill="#2563eb55"/><rect class="c w19" x="244.4" y="162.8" width="9" height="9" rx="2" fill="#2563eb99"/><rect class="c w19" x="244.4" y="174.4" width="9" height="9" rx="2" fill="#60a5fa"/><rect class="c w19" x="244.4" y="186.0" width="9" height="9" rx="2" fill="#2563eb99"/><rect class="c w19" x="244.4" y="197.6" width="9" height="9" rx="2" fill="#60a5fa"/><rect class="c w20" x="256.0" y="128.0" width="9" height="9" rx="2" fill="#2563eb55"/><rect class="c w20" x="256.0" y="139.6" width="9" height="9" rx="2" fill="#2563eb55"/><rect class="c w20" x="256.0" y="151.2" width="9" height="9" rx="2" fill="#2563eb99"/><rect class="c w20" x="256.0" y="162.8" width="9" height="9" rx="2" fill="#2563ebdd"/><rect class="c w20" x="256.0" y="174.4" width="9" height="9" rx="2" fill="#2563eb99"/><rect class="c w20" x="256.0" y="186.0" width="9" height="9" rx="2" fill="#2563ebdd"/><rect class="c w20" x="256.0" y="197.6" width="9" height="9" rx="2" fill="#2563eb99"/><rect class="c w21" x="267.6" y="128.0" width="9" height="9" rx="2" fill="#2563eb55"/><rect class="c w21" x="267.6" y="139.6" width="9" height="9" rx="2" fill="#2563ebdd"/><rect class="c w21" x="267.6" y="151.2" width="9" height="9" rx="2" fill="#2563ebdd"/><rect class="c w21" x="267.6" y="162.8" width="9" height="9" rx="2" fill="#2563eb99"/><rect class="c w21" x="267.6" y="174.4" width="9" height="9" rx="2" fill="#60a5fa"/><rect class="c w21" x="267.6" y="186.0" width="9" height="9" rx="2" fill="#2563eb55"/><rect class="c w21" x="267.6" y="197.6" width="9" height="9" rx="2" fill="#2563ebdd"/><rect class="c w22" x="279.2" y="128.0" width="9" height="9" rx="2" fill="#60a5fa"/><rect class="c w22" x="279.2" y="139.6" width="9" height="9" rx="2" fill="#2563eb55"/><rect class="c w22" x="279.2" y="151.2" width="9" height="9" rx="2" fill="#2563eb55"/><rect class="c w22" x="279.2" y="162.8" width="9" height="9" rx="2" fill="#2563eb55"/><rect class="c w22" x="279.2" y="174.4" width="9" height="9" rx="2" fill="#60a5fa"/><rect class="c w22" x="279.2" y="186.0" width="9" height="9" rx="2" fill="#2563eb99"/><rect class="c w22" x="279.2" y="197.6" width="9" height="9" rx="2" fill="#60a5fa"/><rect class="c w23" x="290.8" y="128.0" width="9" height="9" rx="2" fill="#60a5fa"/><rect class="c w23" x="290.8" y="139.6" width="9" height="9" rx="2" fill="#2563ebdd"/><rect class="c w23" x="290.8" y="151.2" width="9" height="9" rx="2" fill="#2563ebdd"/><rect class="c w23" x="290.8" y="162.8" width="9" height="9" rx="2" fill="#60a5fa"/><rect class="c w23" x="290.8" y="174.4" width="9" height="9" rx="2" fill="#60a5fa"/><rect class="c w23" x="290.8" y="186.0" width="9" height="9" rx="2" fill="#2563ebdd"/><rect class="c w23" x="290.8" y="197.6" width="9" height="9" rx="2" fill="#60a5fa"/><rect class="c w24" x="302.4" y="128.0" width="9" height="9" rx="2" fill="#60a5fa"/><rect class="c w24" x="302.4" y="139.6" width="9" height="9" rx="2" fill="#2563eb55"/><rect class="c w24" x="302.4" y="151.2" width="9" height="9" rx="2" fill="#2563ebdd"/><rect class="c w24" x="302.4" y="162.8" width="9" height="9" rx="2" fill="#2563eb99"/><rect class="c w24" x="302.4" y="174.4" width="9" height="9" rx="2" fill="#2563ebdd"/><rect class="c w24" x="302.4" y="186.0" width="9" height="9" rx="2" fill="#2563ebdd"/><rect class="c w24" x="302.4" y="197.6" width="9" height="9" rx="2" fill="#60a5fa"/><rect class="c w25" x="314.0" y="128.0" width="9" height="9" rx="2" fill="rgba(255,255,255,0.05)"/><rect class="c w25" x="314.0" y="139.6" width="9" height="9" rx="2" fill="#60a5fa"/><rect class="c w25" x="314.0" y="151.2" width="9" height="9" rx="2" fill="#2563ebdd"/><rect class="c w25" x="314.0" y="162.8" width="9" height="9" rx="2" fill="rgba(255,255,255,0.05)"/><rect class="c w25" x="314.0" y="174.4" width="9" height="9" rx="2" fill="rgba(255,255,255,0.05)"/><rect class="c w25" x="314.0" y="186.0" width="9" height="9" rx="2" fill="#2563eb55"/><rect class="c w25" x="314.0" y="197.6" width="9" height="9" rx="2" fill="rgba(255,255,255,0.05)"/><rect class="c w26" x="325.6" y="128.0" width="9" height="9" rx="2" fill="#2563eb55"/><rect class="c w26" x="325.6" y="139.6" width="9" height="9" rx="2" fill="#60a5fa"/><rect class="c w26" x="325.6" y="151.2" width="9" height="9" rx="2" fill="#2563ebdd"/><rect class="c w26" x="325.6" y="162.8" width="9" height="9" rx="2" fill="#2563ebdd"/><rect class="c w26" x="325.6" y="174.4" width="9" height="9" rx="2" fill="rgba(255,255,255,0.05)"/><rect class="c w26" x="325.6" y="186.0" width="9" height="9" rx="2" fill="#2563eb55"/><rect class="c w26" x="325.6" y="197.6" width="9" height="9" rx="2" fill="#60a5fa"/><rect class="c w27" x="337.2" y="128.0" width="9" height="9" rx="2" fill="#2563eb99"/><rect class="c w27" x="337.2" y="139.6" width="9" height="9" rx="2" fill="#2563eb55"/><rect class="c w27" x="337.2" y="151.2" width="9" height="9" rx="2" fill="#2563ebdd"/><rect class="c w27" x="337.2" y="162.8" width="9" height="9" rx="2" fill="rgba(255,255,255,0.05)"/><rect class="c w27" x="337.2" y="174.4" width="9" height="9" rx="2" fill="#2563eb55"/><rect class="c w27" x="337.2" y="186.0" width="9" height="9" rx="2" fill="#60a5fa"/><rect class="c w27" x="337.2" y="197.6" width="9" height="9" rx="2" fill="#2563ebdd"/><rect class="c w28" x="348.8" y="128.0" width="9" height="9" rx="2" fill="#60a5fa"/><rect class="c w28" x="348.8" y="139.6" width="9" height="9" rx="2" fill="#60a5fa"/><rect class="c w28" x="348.8" y="151.2" width="9" height="9" rx="2" fill="#2563ebdd"/><rect class="c w28" x="348.8" y="162.8" width="9" height="9" rx="2" fill="#2563eb99"/><rect class="c w28" x="348.8" y="174.4" width="9" height="9" rx="2" fill="#60a5fa"/><rect class="c w28" x="348.8" y="186.0" width="9" height="9" rx="2" fill="#2563ebdd"/><rect class="c w28" x="348.8" y="197.6" width="9" height="9" rx="2" fill="#2563eb55"/><rect class="c w29" x="360.4" y="128.0" width="9" height="9" rx="2" fill="#2563ebdd"/><rect class="c w29" x="360.4" y="139.6" width="9" height="9" rx="2" fill="rgba(255,255,255,0.05)"/><rect class="c w29" x="360.4" y="151.2" width="9" height="9" rx="2" fill="rgba(255,255,255,0.05)"/><rect class="c w29" x="360.4" y="162.8" width="9" height="9" rx="2" fill="#2563ebdd"/><rect class="c w29" x="360.4" y="174.4" width="9" height="9" rx="2" fill="#60a5fa"/><rect class="c w29" x="360.4" y="186.0" width="9" height="9" rx="2" fill="#2563ebdd"/><rect class="c w29" x="360.4" y="197.6" width="9" height="9" rx="2" fill="#60a5fa"/><rect class="c w30" x="372.0" y="128.0" width="9" height="9" rx="2" fill="#2563eb99"/><rect class="c w30" x="372.0" y="139.6" width="9" height="9" rx="2" fill="rgba(255,255,255,0.05)"/><rect class="c w30" x="372.0" y="151.2" width="9" height="9" rx="2" fill="rgba(255,255,255,0.05)"/><rect class="c w30" x="372.0" y="162.8" width="9" height="9" rx="2" fill="#2563eb55"/><rect class="c w30" x="372.0" y="174.4" width="9" height="9" rx="2" fill="#2563eb99"/><rect class="c w30" x="372.0" y="186.0" width="9" height="9" rx="2" fill="#2563ebdd"/><rect class="c w30" x="372.0" y="197.6" width="9" height="9" rx="2" fill="#60a5fa"/><rect class="c w31" x="383.6" y="128.0" width="9" height="9" rx="2" fill="#2563eb55"/><rect class="c w31" x="383.6" y="139.6" width="9" height="9" rx="2" fill="#2563ebdd"/><rect class="c w31" x="383.6" y="151.2" width="9" height="9" rx="2" fill="#2563eb55"/><rect class="c w31" x="383.6" y="162.8" width="9" height="9" rx="2" fill="#2563eb55"/><rect class="c w31" x="383.6" y="174.4" width="9" height="9" rx="2" fill="#2563eb55"/><rect class="c w31" x="383.6" y="186.0" width="9" height="9" rx="2" fill="#2563ebdd"/><rect class="c w31" x="383.6" y="197.6" width="9" height="9" rx="2" fill="#2563eb99"/><rect class="c w32" x="395.2" y="128.0" width="9" height="9" rx="2" fill="#2563ebdd"/><rect class="c w32" x="395.2" y="139.6" width="9" height="9" rx="2" fill="#2563eb55"/><rect class="c w32" x="395.2" y="151.2" width="9" height="9" rx="2" fill="#60a5fa"/><rect class="c w32" x="395.2" y="162.8" width="9" height="9" rx="2" fill="rgba(255,255,255,0.05)"/><rect class="c w32" x="395.2" y="174.4" width="9" height="9" rx="2" fill="rgba(255,255,255,0.05)"/><rect class="c w32" x="395.2" y="186.0" width="9" height="9" rx="2" fill="#60a5fa"/><rect class="c w32" x="395.2" y="197.6" width="9" height="9" rx="2" fill="#2563ebdd"/><rect class="c w33" x="406.8" y="128.0" width="9" height="9" rx="2" fill="#60a5fa"/><rect class="c w33" x="406.8" y="139.6" width="9" height="9" rx="2" fill="rgba(255,255,255,0.05)"/><rect class="c w33" x="406.8" y="151.2" width="9" height="9" rx="2" fill="rgba(255,255,255,0.05)"/><rect class="c w33" x="406.8" y="162.8" width="9" height="9" rx="2" fill="#2563eb99"/><rect class="c w33" x="406.8" y="174.4" width="9" height="9" rx="2" fill="rgba(255,255,255,0.05)"/><rect class="c w33" x="406.8" y="186.0" width="9" height="9" rx="2" fill="rgba(255,255,255,0.05)"/><rect class="c w33" x="406.8" y="197.6" width="9" height="9" rx="2" fill="#60a5fa"/><rect class="c w34" x="418.4" y="128.0" width="9" height="9" rx="2" fill="#60a5fa"/><rect class="c w34" x="418.4" y="139.6" width="9" height="9" rx="2" fill="rgba(255,255,255,0.05)"/><rect class="c w34" x="418.4" y="151.2" width="9" height="9" rx="2" fill="#2563eb55"/><rect class="c w34" x="418.4" y="162.8" width="9" height="9" rx="2" fill="#2563ebdd"/><rect class="c w34" x="418.4" y="174.4" width="9" height="9" rx="2" fill="#2563eb55"/><rect class="c w34" x="418.4" y="186.0" width="9" height="9" rx="2" fill="#60a5fa"/><rect class="c w34" x="418.4" y="197.6" width="9" height="9" rx="2" fill="#2563ebdd"/><rect class="c w35" x="430.0" y="128.0" width="9" height="9" rx="2" fill="#60a5fa"/><rect class="c w35" x="430.0" y="139.6" width="9" height="9" rx="2" fill="#2563ebdd"/><rect class="c w35" x="430.0" y="151.2" width="9" height="9" rx="2" fill="rgba(255,255,255,0.05)"/><rect class="c w35" x="430.0" y="162.8" width="9" height="9" rx="2" fill="#2563eb55"/><rect class="c w35" x="430.0" y="174.4" width="9" height="9" rx="2" fill="rgba(255,255,255,0.05)"/><rect class="c w35" x="430.0" y="186.0" width="9" height="9" rx="2" fill="#2563eb99"/><rect class="c w35" x="430.0" y="197.6" width="9" height="9" rx="2" fill="rgba(255,255,255,0.05)"/><rect class="c w36" x="441.6" y="128.0" width="9" height="9" rx="2" fill="rgba(255,255,255,0.05)"/><rect class="c w36" x="441.6" y="139.6" width="9" height="9" rx="2" fill="rgba(255,255,255,0.05)"/><rect class="c w36" x="441.6" y="151.2" width="9" height="9" rx="2" fill="rgba(255,255,255,0.05)"/><rect class="c w36" x="441.6" y="162.8" width="9" height="9" rx="2" fill="rgba(255,255,255,0.05)"/><rect class="c w36" x="441.6" y="174.4" width="9" height="9" rx="2" fill="#2563ebdd"/><rect class="c w36" x="441.6" y="186.0" width="9" height="9" rx="2" fill="#2563ebdd"/><rect class="c w36" x="441.6" y="197.6" width="9" height="9" rx="2" fill="#60a5fa"/><rect class="c w37" x="453.2" y="128.0" width="9" height="9" rx="2" fill="#2563ebdd"/><rect class="c w37" x="453.2" y="139.6" width="9" height="9" rx="2" fill="#2563ebdd"/><rect class="c w37" x="453.2" y="151.2" width="9" height="9" rx="2" fill="#2563ebdd"/><rect class="c w37" x="453.2" y="162.8" width="9" height="9" rx="2" fill="#2563eb99"/><rect class="c w37" x="453.2" y="174.4" width="9" height="9" rx="2" fill="rgba(255,255,255,0.05)"/><rect class="c w37" x="453.2" y="186.0" width="9" height="9" rx="2" fill="#60a5fa"/><rect class="c w37" x="453.2" y="197.6" width="9" height="9" rx="2" fill="#60a5fa"/><rect class="c w38" x="464.8" y="128.0" width="9" height="9" rx="2" fill="rgba(255,255,255,0.05)"/><rect class="c w38" x="464.8" y="139.6" width="9" height="9" rx="2" fill="rgba(255,255,255,0.05)"/><rect class="c w38" x="464.8" y="151.2" width="9" height="9" rx="2" fill="#2563eb55"/><rect class="c w38" x="464.8" y="162.8" width="9" height="9" rx="2" fill="rgba(255,255,255,0.05)"/><rect class="c w38" x="464.8" y="174.4" width="9" height="9" rx="2" fill="#2563eb55"/><rect class="c w38" x="464.8" y="186.0" width="9" height="9" rx="2" fill="#2563eb99"/><rect class="c w38" x="464.8" y="197.6" width="9" height="9" rx="2" fill="rgba(255,255,255,0.05)"/><rect class="c w39" x="476.4" y="128.0" width="9" height="9" rx="2" fill="rgba(255,255,255,0.05)"/><rect class="c w39" x="476.4" y="139.6" width="9" height="9" rx="2" fill="rgba(255,255,255,0.05)"/><rect class="c w39" x="476.4" y="151.2" width="9" height="9" rx="2" fill="rgba(255,255,255,0.05)"/><rect class="c w39" x="476.4" y="162.8" width="9" height="9" rx="2" fill="#2563eb55"/><rect class="c w39" x="476.4" y="174.4" width="9" height="9" rx="2" fill="#2563eb99"/><rect class="c w39" x="476.4" y="186.0" width="9" height="9" rx="2" fill="#2563eb55"/><rect class="c w39" x="476.4" y="197.6" width="9" height="9" rx="2" fill="#2563ebdd"/><rect class="c w40" x="488.0" y="128.0" width="9" height="9" rx="2" fill="#2563eb99"/><rect class="c w40" x="488.0" y="139.6" width="9" height="9" rx="2" fill="#2563eb55"/><rect class="c w40" x="488.0" y="151.2" width="9" height="9" rx="2" fill="rgba(255,255,255,0.05)"/><rect class="c w40" x="488.0" y="162.8" width="9" height="9" rx="2" fill="#60a5fa"/><rect class="c w40" x="488.0" y="174.4" width="9" height="9" rx="2" fill="#60a5fa"/><rect class="c w40" x="488.0" y="186.0" width="9" height="9" rx="2" fill="#60a5fa"/><rect class="c w40" x="488.0" y="197.6" width="9" height="9" rx="2" fill="#60a5fa"/><rect class="c w41" x="499.6" y="128.0" width="9" height="9" rx="2" fill="#2563eb55"/><rect class="c w41" x="499.6" y="139.6" width="9" height="9" rx="2" fill="#2563eb99"/><rect class="c w41" x="499.6" y="151.2" width="9" height="9" rx="2" fill="#60a5fa"/><rect class="c w41" x="499.6" y="162.8" width="9" height="9" rx="2" fill="#2563eb99"/><rect class="c w41" x="499.6" y="174.4" width="9" height="9" rx="2" fill="#2563ebdd"/><rect class="c w41" x="499.6" y="186.0" width="9" height="9" rx="2" fill="#2563eb99"/><rect class="c w41" x="499.6" y="197.6" width="9" height="9" rx="2" fill="#2563ebdd"/><rect class="c w42" x="511.2" y="128.0" width="9" height="9" rx="2" fill="#2563ebdd"/><rect class="c w42" x="511.2" y="139.6" width="9" height="9" rx="2" fill="#2563eb55"/><rect class="c w42" x="511.2" y="151.2" width="9" height="9" rx="2" fill="#2563ebdd"/><rect class="c w42" x="511.2" y="162.8" width="9" height="9" rx="2" fill="#60a5fa"/><rect class="c w42" x="511.2" y="174.4" width="9" height="9" rx="2" fill="#2563eb55"/><rect class="c w42" x="511.2" y="186.0" width="9" height="9" rx="2" fill="#2563eb55"/><rect class="c w42" x="511.2" y="197.6" width="9" height="9" rx="2" fill="rgba(255,255,255,0.05)"/><rect class="c w43" x="522.8" y="128.0" width="9" height="9" rx="2" fill="rgba(255,255,255,0.05)"/><rect class="c w43" x="522.8" y="139.6" width="9" height="9" rx="2" fill="#2563eb55"/><rect class="c w43" x="522.8" y="151.2" width="9" height="9" rx="2" fill="#2563ebdd"/><rect class="c w43" x="522.8" y="162.8" width="9" height="9" rx="2" fill="#2563ebdd"/><rect class="c w43" x="522.8" y="174.4" width="9" height="9" rx="2" fill="#2563eb55"/><rect class="c w43" x="522.8" y="186.0" width="9" height="9" rx="2" fill="#2563eb99"/><rect class="c w43" x="522.8" y="197.6" width="9" height="9" rx="2" fill="#60a5fa"/><rect class="c w44" x="534.4" y="128.0" width="9" height="9" rx="2" fill="rgba(255,255,255,0.05)"/><rect class="c w44" x="534.4" y="139.6" width="9" height="9" rx="2" fill="#2563eb99"/><rect class="c w44" x="534.4" y="151.2" width="9" height="9" rx="2" fill="#2563eb55"/><rect class="c w44" x="534.4" y="162.8" width="9" height="9" rx="2" fill="#60a5fa"/><rect class="c w44" x="534.4" y="174.4" width="9" height="9" rx="2" fill="#2563eb99"/><rect class="c w44" x="534.4" y="186.0" width="9" height="9" rx="2" fill="rgba(255,255,255,0.05)"/><rect class="c w44" x="534.4" y="197.6" width="9" height="9" rx="2" fill="rgba(255,255,255,0.05)"/><rect class="c w45" x="546.0" y="128.0" width="9" height="9" rx="2" fill="#2563eb99"/><rect class="c w45" x="546.0" y="139.6" width="9" height="9" rx="2" fill="#2563eb55"/><rect class="c w45" x="546.0" y="151.2" width="9" height="9" rx="2" fill="#2563eb55"/><rect class="c w45" x="546.0" y="162.8" width="9" height="9" rx="2" fill="#2563eb99"/><rect class="c w45" x="546.0" y="174.4" width="9" height="9" rx="2" fill="#60a5fa"/><rect class="c w45" x="546.0" y="186.0" width="9" height="9" rx="2" fill="#2563eb99"/><rect class="c w45" x="546.0" y="197.6" width="9" height="9" rx="2" fill="#2563ebdd"/><rect class="c w46" x="557.6" y="128.0" width="9" height="9" rx="2" fill="#2563eb99"/><rect class="c w46" x="557.6" y="139.6" width="9" height="9" rx="2" fill="#2563ebdd"/><rect class="c w46" x="557.6" y="151.2" width="9" height="9" rx="2" fill="rgba(255,255,255,0.05)"/><rect class="c w46" x="557.6" y="162.8" width="9" height="9" rx="2" fill="#2563eb55"/><rect class="c w46" x="557.6" y="174.4" width="9" height="9" rx="2" fill="#2563eb99"/><rect class="c w46" x="557.6" y="186.0" width="9" height="9" rx="2" fill="rgba(255,255,255,0.05)"/><rect class="c w46" x="557.6" y="197.6" width="9" height="9" rx="2" fill="#2563eb55"/><rect class="c w47" x="569.2" y="128.0" width="9" height="9" rx="2" fill="#2563eb55"/><rect class="c w47" x="569.2" y="139.6" width="9" height="9" rx="2" fill="rgba(255,255,255,0.05)"/><rect class="c w47" x="569.2" y="151.2" width="9" height="9" rx="2" fill="#2563eb55"/><rect class="c w47" x="569.2" y="162.8" width="9" height="9" rx="2" fill="rgba(255,255,255,0.05)"/><rect class="c w47" x="569.2" y="174.4" width="9" height="9" rx="2" fill="rgba(255,255,255,0.05)"/><rect class="c w47" x="569.2" y="186.0" width="9" height="9" rx="2" fill="rgba(255,255,255,0.05)"/><rect class="c w47" x="569.2" y="197.6" width="9" height="9" rx="2" fill="rgba(255,255,255,0.05)"/><rect class="c w48" x="580.8" y="128.0" width="9" height="9" rx="2" fill="rgba(255,255,255,0.05)"/><rect class="c w48" x="580.8" y="139.6" width="9" height="9" rx="2" fill="#2563eb55"/><rect class="c w48" x="580.8" y="151.2" width="9" height="9" rx="2" fill="rgba(255,255,255,0.05)"/><rect class="c w48" x="580.8" y="162.8" width="9" height="9" rx="2" fill="rgba(255,255,255,0.05)"/><rect class="c w48" x="580.8" y="174.4" width="9" height="9" rx="2" fill="rgba(255,255,255,0.05)"/><rect class="c w48" x="580.8" y="186.0" width="9" height="9" rx="2" fill="rgba(255,255,255,0.05)"/><rect class="c w48" x="580.8" y="197.6" width="9" height="9" rx="2" fill="#2563eb55"/><rect class="c w49" x="592.4" y="128.0" width="9" height="9" rx="2" fill="rgba(255,255,255,0.05)"/><rect class="c w49" x="592.4" y="139.6" width="9" height="9" rx="2" fill="rgba(255,255,255,0.05)"/><rect class="c w49" x="592.4" y="151.2" width="9" height="9" rx="2" fill="#2563ebdd"/><rect class="c w49" x="592.4" y="162.8" width="9" height="9" rx="2" fill="#60a5fa"/><rect class="c w49" x="592.4" y="174.4" width="9" height="9" rx="2" fill="#60a5fa"/><rect class="c w49" x="592.4" y="186.0" width="9" height="9" rx="2" fill="#2563eb99"/><rect class="c w49" x="592.4" y="197.6" width="9" height="9" rx="2" fill="#60a5fa"/><rect class="c w50" x="604.0" y="128.0" width="9" height="9" rx="2" fill="#60a5fa"/><rect class="c w50" x="604.0" y="139.6" width="9" height="9" rx="2" fill="#2563eb55"/><rect class="c w50" x="604.0" y="151.2" width="9" height="9" rx="2" fill="#2563eb55"/><rect class="c w50" x="604.0" y="162.8" width="9" height="9" rx="2" fill="#2563eb55"/><rect class="c w50" x="604.0" y="174.4" width="9" height="9" rx="2" fill="#2563eb99"/><rect class="c w50" x="604.0" y="186.0" width="9" height="9" rx="2" fill="#2563eb55"/><rect class="c w50" x="604.0" y="197.6" width="9" height="9" rx="2" fill="#2563eb99"/><rect class="c w51" x="615.6" y="128.0" width="9" height="9" rx="2" fill="#60a5fa"/><rect class="c w51" x="615.6" y="139.6" width="9" height="9" rx="2" fill="#60a5fa"/><rect class="c w51" x="615.6" y="151.2" width="9" height="9" rx="2" fill="#2563eb99"/><rect class="c w51" x="615.6" y="162.8" width="9" height="9" rx="2" fill="#2563eb55"/><rect class="c w51" x="615.6" y="174.4" width="9" height="9" rx="2" fill="#2563eb99"/><rect class="c w51" x="615.6" y="186.0" width="9" height="9" rx="2" fill="#2563eb99"/><rect class="c w51" x="615.6" y="197.6" width="9" height="9" rx="2" fill="#2563eb99"/><rect class="c w52" x="627.2" y="128.0" width="9" height="9" rx="2" fill="#2563eb55"/><rect class="c w52" x="627.2" y="139.6" width="9" height="9" rx="2" fill="#2563eb99"/><rect class="c w52" x="627.2" y="151.2" width="9" height="9" rx="2" fill="#2563eb99"/><rect class="c w52" x="627.2" y="162.8" width="9" height="9" rx="2" fill="#2563eb99"/><rect class="c w52" x="627.2" y="174.4" width="9" height="9" rx="2" fill="#2563eb99"/><rect x="656.8" y="128" width="167.20000000000005" height="79" rx="10" fill="#0f171c" stroke="rgba(255,255,255,0.07)"/><text class="m" x="670.8" y="148" fill="#22c55e" font-size="8.5">CURRENT STREAK</text><text class="v" x="670.8" y="174" fill="#f3f4f6" font-size="22">24<tspan class="m" font-size="9" fill="rgba(255,255,255,0.5)"> DAYS</tspan></text><text class="m" x="670.8" y="194" fill="rgba(255,255,255,0.5)" font-size="8">LONGEST 175  |  ACTIVE 317</text><text class="m" x="24" y="232" fill="rgba(255,255,255,0.5)" font-size="8.5">TOP LANGUAGES BY CODE SIZE</text><g class="grow"><clipPath id="bar"><rect x="24" y="242" width="792" height="10" rx="5"/></clipPath><g clip-path="url(#bar)"><rect x="24.0" y="242" width="481.5" height="10" fill="#3178c6"/><rect x="505.5" y="242" width="177.6" height="10" fill="#3572A5"/><rect x="683.0" y="242" width="49.6" height="10" fill="#f34b7d"/><rect x="732.6" y="242" width="47.1" height="10" fill="#f1e05a"/><rect x="779.7" y="242" width="25.6" height="10" fill="#663399"/><rect x="805.3" y="242" width="10.7" height="10" fill="#89e051"/></g></g><circle cx="29" cy="273" r="4.5" fill="#3178c6"/><text class="m" x="40" y="276" fill="rgba(255,255,255,0.75)" font-size="9">TYPESCRIPT  58.3%</text><circle cx="299" cy="273" r="4.5" fill="#3572A5"/><text class="m" x="310" y="276" fill="rgba(255,255,255,0.75)" font-size="9">PYTHON  21.5%</text><circle cx="569" cy="273" r="4.5" fill="#f34b7d"/><text class="m" x="580" y="276" fill="rgba(255,255,255,0.75)" font-size="9">C++  6.0%</text><circle cx="29" cy="293" r="4.5" fill="#f1e05a"/><text class="m" x="40" y="296" fill="rgba(255,255,255,0.75)" font-size="9">JAVASCRIPT  5.7%</text><circle cx="299" cy="293" r="4.5" fill="#663399"/><text class="m" x="310" y="296" fill="rgba(255,255,255,0.75)" font-size="9">CSS  3.1%</text><circle cx="569" cy="293" r="4.5" fill="#89e051"/><text class="m" x="580" y="296" fill="rgba(255,255,255,0.75)" font-size="9">SHELL  1.3%</text></svg>